<?xml version="1.0" standalone="no"?>
<!DOCTYPE svg PUBLIC "-//W3C//DTD SVG 20010904//EN"
 "http://www.w3.org/TR/2001/REC-SVG-20010904/DTD/svg10.dtd">
<svg version="1.0" xmlns="http://www.w3.org/2000/svg"
 width="384.000000pt" height="384.000000pt" viewBox="0 0 384.000000 384.000000"
 preserveAspectRatio="xMidYMid meet">
<metadata>
Created by potrace 1.11, written by Peter Selinger 2001-2013
</metadata>
<g transform="translate(0.000000,384.000000) scale(0.100000,-0.100000)"
fill="#000000" stroke="none">
<path d="M3020 3387 c-3 -2 -28 -7 -57 -11 -161 -19 -444 -115 -603 -204 l-65
-37 -106 4 c-83 2 -113 0 -138 -13 l-31 -17 0 -107 c-1 -59 -1 -557 -1 -1107
0 -655 -3 -1013 -10 -1039 -27 -100 -14 -118 143 -212 237 -140 442 -229 513
-221 122 13 410 214 617 429 309 321 455 643 413 916 -19 126 -147 300 -325
442 -30 24 -59 47 -63 50 -4 4 30 45 76 91 96 96 150 167 201 259 84 155 88
317 9 405 -10 11 -47 45 -83 74 -36 29 -87 86 -114 125 -98 144 -135 167 -276
174 -52 2 -97 2 -100 -1z m64 -507 c43 -16 27 -59 -73 -184 -60 -76 -217 -236
-300 -306 -29 -25 -65 -55 -79 -67 -14 -12 -28 -21 -30 -18 -7 6 -4 343 3 354
10 17 103 83 165 118 70 39 166 80 233 98 29 7 53 14 54 14 1 1 13 -3 27 -9z
m142 -1050 c4 -133 -85 -336 -234 -536 -112 -151 -222 -249 -336 -299 l-56
-25 -1 28 c0 31 0 567 1 595 1 48 308 198 524 257 92 25 101 23 102 -20z"/>
<path d="M1115 3321 c-22 -10 -55 -34 -73 -55 -34 -39 -40 -74 -21 -123 8 -20
11 -225 9 -693 -1 -366 -3 -696 -5 -735 -8 -180 -17 -353 -20 -385 -2 -19 -6
-66 -10 -105 -9 -103 -34 -244 -50 -281 -18 -43 -47 -59 -67 -36 -29 32 -61
116 -75 192 -2 14 -8 44 -14 68 -10 46 -13 73 -25 192 -7 77 -7 115 1 163 7
38 -18 82 -63 111 -33 22 -137 58 -202 70 -14 3 -36 8 -50 11 -14 4 -70 8
-126 11 -95 4 -102 2 -141 -23 -69 -44 -89 -116 -57 -204 15 -44 18 -58 29
-173 30 -313 120 -539 266 -670 69 -62 133 -91 290 -132 74 -19 175 -47 224
-64 116 -37 136 -41 220 -45 142 -7 242 64 321 225 41 84 108 303 119 390 3
25 8 52 10 60 7 26 14 71 29 200 41 343 48 506 52 1135 2 286 5 577 8 647 4
115 3 129 -15 152 -58 73 -462 143 -564 97z"/>
</g>
</svg>
